<svg xmlns="http://www.w3.org/2000/svg" width="103" height="105" viewBox="0 0 103 105">
  <defs>
    <style>
      .cls-1 {
        fill: #fff;
        fill-rule: evenodd;
      }
    </style>
  </defs>
  <path class="cls-1" d="M35.145,0.023a33.169,33.169,0,0,1,8.9.725h1.684c1.132,0.341,2.753.619,3.85,0.966h1.2l9.144,2.9V4.855H60.41V5.1h0.722V5.338h0.481V5.58h0.722V5.822L63.779,6.3V6.546H64.26V6.788h0.481V7.03h0.481V7.271H65.7V7.513h0.481V7.755h0.481V8h0.481V8.238h0.481L68.11,8.721h0.481L68.832,9.2l0.963,0.242,0.241,0.483L71,10.171l0.241,0.483H71.72l0.241,0.483h0.481v0.242l0.722,0.242L73.4,12.1h0.481l0.241,0.483h0.481l0.241,0.483,0.722,0.242,0.481,0.725h0.481l0.241,0.483,0.722,0.242,0.963,1.208h0.481l1.2,1.45h0.481l2.406,2.658,2.647,2.416v0.483l1.444,1.208v0.483l1.2,0.966v0.483L89.044,26.6v0.483l0.722,0.483v0.483l0.722,0.483v0.483l0.481,0.242,0.241,0.725H91.45v0.483l0.481,0.242v0.483l0.481,0.242,0.241,0.725h0.241v0.483h0.241v0.483l0.481,0.242,0.241,0.966,0.481,0.242v0.483l0.481,0.483v0.483H95.06v0.483H95.3v0.483h0.241v0.483h0.241v0.483c4.35,8.18,7.122,18.008,7.219,30.444H89.525A49.712,49.712,0,0,0,83.751,44V43.515H83.51V43.031H83.269V42.548H83.029V42.065l-0.481-.483V41.1l-0.481-.242-0.241-.966-0.481-.242V39.166H81.1V38.682l-0.481-.242V37.957H80.382l-0.241-.725-0.481-.242V36.508l-0.722-.483V35.541l-0.722-.483V34.575l-0.962-.725V33.367L75.81,32.158V31.675l-2.887-2.658-1.444-1.691H71l-1.2-1.45H69.313l-0.722-.966H68.11l-0.481-.725H67.148l-0.481-.725H66.185l-0.241-.483-0.722-.242V22.494H64.742L64.5,22.01l-0.962-.242a51.3,51.3,0,0,0-28.393-8.215V0.023Zm0,23.921a40.328,40.328,0,0,1,21.9,6.04L58,30.225v0.242l0.722,0.242,0.241,0.483h0.481v0.242l0.722,0.242,0.241,0.483h0.481l0.481,0.725h0.481l0.481,0.725h0.481l0.962,1.208H64.26l1.2,1.45,2.888,2.658v0.483l1.2,0.967v0.483l0.722,0.483v0.483L71,42.307V42.79l0.481,0.242,0.241,0.725H71.96V44.24l0.481,0.242,0.241,0.725h0.241l0.241,0.966c3.616,5.741,5.954,12.921,6.016,22.229H67.148a28.194,28.194,0,0,0-1.444-8.94L65.463,57.77H65.223V57.287H64.982l-0.241-1.45H64.5l-0.481-1.45H63.779V53.9H63.539V53.421H63.3l-0.481-1.45H62.576l-0.241-.725-0.481-.242V50.522H61.614L61.373,49.8l-0.481-.242V49.072l-0.722-.483V48.106L58.726,46.9V46.414l-1.684-1.45L56.8,44.481H56.32l-1.2-1.45-0.722-.242-0.241-.483H53.673l-0.241-.483-0.722-.242V41.34H52.229l-0.241-.483-0.962-.242-0.241-.483-0.962-.242V39.649H49.342V39.407L47.9,38.924V38.682H47.176V38.441H46.7V38.2H45.973V37.957H45.251V37.716H44.53V37.474H43.808V37.233H42.845a22.342,22.342,0,0,0-7.459-.967,14.762,14.762,0,0,1-.241-4.108V23.943Zm-13.475,26.1a2.715,2.715,0,0,0,1.2-.725V49.072h0.481V48.83l0.962-.242V48.347h0.722V48.106h1.444V47.864a14.232,14.232,0,0,1,4.812.242H33.7l6.015,1.45V49.8H40.2v0.242H40.92V50.28l1.444,0.483v0.242l0.963,0.242,0.241,0.483,0.962,0.242,0.241,0.483h0.481l0.481,0.725h0.481l0.962,1.208h0.481L47.9,54.871,48.861,55.6v0.483l1.2,0.966v0.483l0.722,0.483V58.5l0.481,0.242V59.22l0.481,0.242,0.481,1.45H52.47v0.483h0.241v0.483h0.241l0.481,1.45h0.241v0.725h0.241v0.725h0.241V65.5h0.241v0.725h0.241l0.241,1.933h0.241v1.208c0.649,2.168,1.217,7.061.481,9.665v1.933H55.357v1.45H55.117l-0.241,1.933H54.636v0.725H54.395V85.8H54.154v0.725H53.914v0.725H53.673v0.483H53.433v0.725H53.192l-0.241.966H52.711l-0.241.966-0.481.242-0.241.966-0.481.242v0.483l-0.481.242v0.483l-0.481.242v0.483l-0.722.483v0.483l-2.406,2.175L45.733,98.6H45.251l-0.481.725H44.289l-0.481.725-0.962.242-0.241.483H42.123l-0.241.483-0.963.242v0.242l-1.444.483v0.242L33.461,104.4l-3.369.242c-3.228.908-8.2-.117-10.587-0.966l-1.684-.242V103.2l-1.2-.241v-0.242l-0.962-.241v-0.242H14.933l-0.241-.483H14.212V101.5H13.73l-0.481-.483H12.768v-0.242l-0.722-.241-0.241-.484H11.324L10.6,99.088H10.121l-1.2-1.45H8.437l-0.481-.483V96.672l-1.684-1.45V94.739l-0.722-.483-0.241-.725-0.481-.242-0.241-.966-0.481-.242-0.481-1.45-0.481-.242L2.9,89.181H2.662l-0.241-.966H2.181L1.94,87.007H1.7V86.282H1.459V85.557H1.218V84.591H0.978V83.624H0.737V82.416H0.5V81.208H0.256L0.015,73.476v-36c0-4.141-.263-7.725,1.444-10.148L2.421,26.6l0.722-.966,0.962-.242V25.151l0.962-.242V24.668l2.166-.242V24.185a6.9,6.9,0,0,1,2.647.483H10.6V24.91h0.481v0.242l0.962,0.242,0.241,0.483h0.481l0.722,0.966,0.481,0.242v0.483l0.481,0.242,0.241,0.966h0.241v0.483h0.241v0.725h0.241v1.208c0.714,2.4.241,6.994,0.241,9.906V77.825L17.1,81.933H17.34l0.241,0.725L18.062,82.9v0.483l1.684,1.45,0.481,0.725h0.481l0.241,0.483H21.43l0.241,0.483h0.481v0.242l0.962,0.242v0.242h0.722V87.49H24.8a8.952,8.952,0,0,0,6.015-.242h0.722V87.007h0.481V86.765l1.2-.242,0.241-.483h0.481l0.241-.483h0.481l0.722-.966h0.481l0.481-.483V83.624l0.962-.725V82.416l0.481-.242,0.481-1.45h0.241V80.241h0.241V79.516H39V78.55h0.241V76.859h0.241V75.167H39.236V73.234H39V72.268H38.755l-0.241-1.45H38.274V70.335H38.033l-0.481-1.45L36.83,68.4V67.919l-0.962-.725-0.481-.725H34.9l-0.241-.483H34.183L33.942,65.5H33.461V65.261H32.739V65.019H32.017V64.777H31.055V64.536H26.724V64.294H25.28V64.053H24.558V63.811L23.6,63.569l-0.241-.483H22.874l-1.2-1.45-0.722-.483-0.241-.967-0.481-.242L19.746,57.77a7.732,7.732,0,0,1-.241-3.383h0.241V53.421h0.241V52.7h0.241l0.241-.967h0.241V51.247h0.241A2.7,2.7,0,0,0,21.671,50.039Z"/>
</svg>
